<?xml version="1.0" standalone="no"?>
<!DOCTYPE svg PUBLIC "-//W3C//DTD SVG 20010904//EN" "http://www.w3.org/TR/2001/REC-SVG-20010904/DTD/svg10.dtd">
<svg version="1.0" xmlns="http://www.w3.org/2000/svg" width="244.000000pt" height="80.000000pt"
  viewBox="0 0 244.000000 80.000000" preserveAspectRatio="xMidYMid meet">

  <g transform="translate(0.000000,80.000000) scale(0.100000,-0.100000)" fill="#fd3a3a" stroke="none">
    <path d="M0 400 l0 -400 1220 0 1220 0 0 231 0 230 -27 -3 c-28 -3 -28 -4 -31
-85 -3 -81 -3 -83 -27 -83 -25 0 -25 1 -25 85 0 84 0 85 -25 85 -18 0 -25 5
-25 20 0 18 7 20 80 20 l80 0 0 150 0 150 -1220 0 -1220 0 0 -400z m442 257
c244 -187 248 -191 248 -260 0 -78 -18 -79 -110 -9 l-80 61 -2 -177 -3 -177
-60 0 -60 0 -3 298 c-3 334 -6 322 70 264z m832 -218 c12 -31 26 -58 31 -59 6
-1 21 25 34 59 22 55 27 61 53 61 l28 0 0 -105 c0 -98 -1 -105 -20 -105 -17 0
-20 7 -20 39 0 56 -15 59 -36 6 -23 -61 -52 -60 -74 3 -19 54 -30 54 -30 -3 0
-41 -2 -45 -25 -45 l-25 0 0 106 0 105 32 -3 c28 -3 33 -9 52 -59z m324 44
c-2 -13 -14 -19 -41 -21 -28 -2 -37 -8 -37 -22 0 -14 8 -20 32 -22 47 -4 51
-35 6 -40 -25 -2 -34 -8 -36 -25 -3 -21 1 -23 37 -23 34 0 41 -3 41 -20 0 -18
-7 -20 -65 -20 l-65 0 0 105 0 105 66 0 c57 0 65 -2 62 -17z m94 -8 c11 -14
23 -25 27 -25 4 0 14 11 21 25 8 16 22 25 37 25 29 0 29 -12 -2 -58 -14 -20
-25 -40 -25 -45 0 -5 14 -28 30 -52 36 -53 36 -55 6 -55 -14 0 -33 11 -44 25
-11 14 -24 25 -30 25 -5 0 -17 -11 -26 -25 -17 -25 -56 -35 -56 -13 0 6 12 31
26 56 l26 44 -31 43 c-17 24 -31 46 -31 49 0 18 54 3 72 -19z m307 -56 c47
-122 48 -129 19 -129 -13 0 -29 9 -36 20 -8 13 -23 20 -42 20 -18 0 -37 -8
-47 -20 -18 -20 -53 -28 -53 -11 0 5 14 47 30 93 17 46 33 89 35 96 2 6 18 12
34 12 27 0 31 -5 60 -81z m151 26 c19 -30 38 -55 43 -55 4 0 7 25 7 55 0 52 1
55 25 55 l26 0 -3 -102 c-3 -97 -4 -103 -25 -106 -17 -3 -30 9 -59 52 -35 53
-57 64 -53 28 1 -10 1 -32 0 -50 -1 -29 -4 -33 -23 -30 -22 3 -23 8 -26 92 -3
105 0 116 30 116 17 0 32 -15 58 -55z" />
    <path d="M1926 404 c-10 -26 -7 -34 14 -34 11 0 20 4 20 9 0 17 -12 41 -20 41
-4 0 -11 -7 -14 -16z" />
  </g>
</svg>
